# AST/ASF file generated using VICON BodyLanguage
# -----------------------------------------------
:version 1.10
:name VICON
:units
  mass 1.0
  length 0.45
  angle deg
:documentation
   .ast/.asf automatically generated from VICON data using
   VICON BodyBuilder and BodyLanguage model FoxedUp or BRILLIANT.MOD
:root
   order TX TY TZ RX RY RZ
   axis XYZ
   position 0 0 0  
   orientation 0 0 0 
:bonedata
  begin
     id 1 
     name lhipjoint
     direction 0.621036 -0.695554 0.361275 
     length 2.46325 
     axis 0 0 0  XYZ
  end
  begin
     id 2 
     name lfemur
     direction 0.34202 -0.939693 0  
     length 6.54784  
     axis 0 0 20  XYZ
    dof rx ry rz
    limits (-160.0 20.0)
           (-70.0 70.0)
           (-60.0 70.0)
  end
  begin
     id 3 
     name ltibia
     direction 0.34202 -0.939693 0   
     length 7.84737   
     axis 0 0 20   XYZ
    dof rx
    limits (-10.0 170.0)
  end
  begin
     id 4 
     name lfoot
     direction 0.0790693 -0.217241 0.97291   
     length 2.59747   
     axis -90 7.62852e-016 20   XYZ
    dof rx rz
    limits (-45.0 90.0)
           (-70.0 20.0)
  end
  begin
     id 5 
     name ltoes
     direction 1.53572e-011 -4.21898e-011 1   
     length 1.29919   
     axis -90 7.62852e-016 20   XYZ
    dof rx
    limits (-90.0 20.0)
  end
  begin
     id 6 
     name rhipjoint
     direction -0.602353 -0.708375 0.367935   
     length 2.41867  
     axis 0 0 0  XYZ 
  end
  begin
     id 7 
     name rfemur
     direction -0.34202 -0.939693 0   
     length 6.92065   
     axis 0 0 -20   XYZ
    dof rx ry rz
    limits (-160.0 20.0)
           (-70.0 70.0)
           (-70.0 60.0)
  end
  begin
     id 8 
     name rtibia
     direction -0.34202 -0.939693 0   
     length 7.88883   
     axis 0 0 -20   XYZ
    dof rx
    limits (-10.0 170.0)
 end
 begin
     id 9 
     name rfoot
     direction -0.0768692 -0.211196 0.974416   
     length 2.43714  
     axis -90 -7.62852e-016 -20   XYZ
    dof rx rz
    limits (-45.0 90.0)
           (-20.0 70.0)
  end
  begin
     id 10 
     name rtoes
     direction -1.53575e-011 -4.21933e-011 1   
     length 1.22113   
     axis -90 -7.62852e-016 -20   XYZ
    dof rx
    limits (-90.0 20.0)
  end
  begin
     id 11 
     name lowerback
     direction 0.0197937 0.98943 -0.143655   
     length 2.16931   
     axis 0 0 0   XYZ
    dof rx ry rz
    limits (-20.0 45.0)
           (-30.0 30.0)
           (-30.0 30.0)
  end
  begin
     id 12 
     name upperback
     direction -0.00183968 0.999975 0.00684288   
     length 2.17221   
     axis 0 0 0   XYZ
    dof rx ry rz
    limits (-20.0 45.0)
           (-30.0 30.0)
           (-30.0 30.0)
  end
  begin
     id 13 
     name thorax
     direction -0.00950244 0.997208 0.0740685   
     length 2.22549   
     axis 0 0 0   XYZ
    dof rx ry rz
    limits (-20.0 45.0)
           (-30.0 30.0)
           (-30.0 30.0)
  end
  begin
     id 14 
     name lowerneck
     direction 0.0218238 0.996215 0.0841425   
     length 1.77269   
     axis 0 0 0   XYZ
    dof rx ry rz
    limits (-20.0 45.0)
           (-30.0 30.0)
           (-30.0 30.0)
  end
  begin
     id 15 
     name upperneck
     direction -0.00430652 0.994214 -0.107332   
     length 1.76534   
     axis 0 0 0   XYZ
    dof rx ry rz
    limits (-20.0 45.0)
           (-30.0 30.0)
           (-30.0 30.0)
  end
  begin
     id 16
     name head
     direction -0.00328946 0.998959 -0.0454998  
     length 1.82634  
     axis 0 0 0   XYZ
    dof rx ry rz
    limits (-20.0 45.0)
           (-30.0 30.0)
           (-30.0 30.0)
  end
  begin
     id 17 
     name lclavicle
     direction 0.970962 0.239191 0.00450212  
     length 3.84872  
     axis 0 0 0   XYZ
    dof ry rz
    limits (-20.0 10.0)
           (0.0 20.0)
  end
  begin
     id 18 
     name lhumerus
     direction 1 -4.48966e-011 5.74696e-028   
     length 5.22771   
     axis 180 -30 -90   XYZ
    dof rx ry rz
    limits (-60.0 90.0)
           (-90.0 90.0)
           (-90.0 90.0)
  end
  begin
     id 19
     name lradius
     direction 1 -4.4896e-011 4.25109e-027   
     length 3.45251   
     axis 180 -30 -90   XYZ
    dof rx
    limits (-10.0 170.0)
  end
  begin
     id 20
     name lwrist
     direction 1 -4.48971e-011 1.15382e-027   
     length 1.72626   
     axis -5.52449e-016 90 90   XYZ
    dof ry
    limits (-180.0 0.0)
 end
  begin
     id 21 
     name lhand
     direction 1 -4.49034e-011 2.30765e-027   
     length 0.552119   
     axis -1.47248e-015 90 90   XYZ
    dof rx rz
    limits (-90.0 90.0)
           (-45.0 45.0)
  end
  begin
     id 22 
     name lfingers
     direction 1 -4.48951e-011 4.61529e-027   
     length 0.445133   
     axis -2.94495e-015 90 90   XYZ
    dof rx
    limits (0.0 90.0)
  end
  begin
     id 23
     name lthumb
     direction 0.707107 -6.34991e-011 0.707107   
     length 0.639124   
     axis -90 45 2.85299e-015   XYZ
    dof rx rz
    limits (-45.0 45.0)
           (-45.0 45.0)
  end
  begin
     id 24 
     name rclavicle
     direction -0.97424 0.222511 -0.0366699   
     length 3.73439  
     axis 0 0 0   XYZ 
    dof ry rz
    limits (-10.0 20.0)
           (-20.0 0.0)
  end
  begin
     id 25 
     name rhumerus
     direction -1 -4.48956e-011 -4.97258e-028  
     length 5.2398   
     axis 180 30 90   XYZ
    dof rx ry rz
    limits (-90.0 60.0)
           (-90.0 90.0)
           (-90.0 90.0)
  end
  begin
     id 26 
     name rradius
     direction -1 -4.4897e-011 -1.72611e-027   
     length 3.48042   
     axis 180 30 90   XYZ
    dof rx
    limits (-10.0 170.0)
  end
  begin
     id 27 
     name rwrist
     direction -1 -4.48976e-011 1.15382e-027   
     length 1.74021   
     axis -5.52449e-016 -90 -90   XYZ
    dof ry
    limits (-180.0 0.0)
  end
  begin
     id 28
     name rhand
     direction -1 -4.48963e-011 2.30765e-027   
     length 0.618713   
     axis -1.47248e-015 -90 -90   XYZ
    dof rx rz
    limits (-90.0 90.0)
           (-45.0 45.0)
  end
  begin
     id 29
     name rfingers
     direction -1 -4.4888e-011 4.61529e-027   
     length 0.498823   
     axis -2.94495e-015 -90 -90   XYZ
    dof rx
    limits (0.0 90.0)
  end
  begin
     id 30
     name rthumb
     direction -0.707107 -6.34968e-011 0.707107   
     length 0.716213   
     axis -90 -45 -2.85299e-015   XYZ
    dof rx rz
    limits (-45.0 45.0)
           (-45.0 45.0)
  end
:hierarchy
  begin
    root lhipjoint rhipjoint lowerback
    lhipjoint lfemur
    lfemur ltibia
    ltibia lfoot
    lfoot ltoes
    rhipjoint rfemur
    rfemur rtibia
    rtibia rfoot
    rfoot rtoes
    lowerback upperback
    upperback thorax
    thorax lowerneck lclavicle rclavicle
    lowerneck upperneck
    upperneck head
    lclavicle lhumerus
    lhumerus lradius
    lradius lwrist
    lwrist lhand lthumb
    lhand lfingers
    rclavicle rhumerus
    rhumerus rradius
    rradius rwrist
    rwrist rhand rthumb
    rhand rfingers
  end

#!OML:ASF G:\JayActor3\Patient Classification 1\Patient 1\Session 5\male.ASF
:FULLY-SPECIFIED
:DEGREES
133
root 44.654 16.1455 -6.40964 9.2245 -82.1162 -11.897
lowerback -1.23893 -0.936541 2.25262
upperback 3.25553 -1.35418 -0.0458768
thorax 3.99451 -0.614994 -1.37287
lowerneck -13.2121 -0.0634731 1.93546
upperneck 21.5269 -0.982201 0.783125
head 8.91598 -0.323496 -0.18772
rclavicle -3.06066e-014 6.75868e-015
rhumerus -34.995 -9.97078 -86.6166
rradius 28.2458
rwrist 1.41239
rhand -17.991 -10.0139
rfingers 7.12502
rthumb 8.27904 -39.8317
lclavicle -3.06066e-014 6.75868e-015
lhumerus -33.8673 1.99365 86.6459
lradius 27.0871
lwrist 18.4233
lhand -17.8107 13.3656
lfingers 7.12502
lthumb 8.45304 43.1764
rfemur -9.58238 3.11971 25.1691
rtibia 38.3976
rfoot -28.7212 -12.7317
rtoes 12.0257
lfemur -5.02957 6.1358 -18.769
ltibia 27.1107
lfoot -19.5494 4.31353
ltoes -3.12124
134
root 44.6544 16.1457 -6.40939 9.19325 -82.0971 -11.8551
lowerback -1.24331 -0.938552 2.26612
upperback 3.24677 -1.35699 -0.0492078
thorax 3.98743 -0.615985 -1.38396
lowerneck -13.1971 -0.065887 1.93789
upperneck 21.5121 -0.983921 0.777775
head 8.90806 -0.324794 -0.190049
rclavicle -5.30507e-015 4.47266e-015
rhumerus -35.0077 -9.98428 -86.6035
rradius 28.2234
rwrist 1.43496
rhand -17.9851 -10.0104
rfingers 7.12502
rthumb 8.28476 -39.8279
lclavicle -5.30507e-015 4.47266e-015
lhumerus -33.8697 2.00763 86.6332
lradius 27.0811
lwrist 18.4033
lhand -17.8147 13.3786
lfingers 7.12502
lthumb 8.44915 43.1896
rfemur -9.58779 3.10444 25.1637
rtibia 38.3865
rfoot -28.721 -12.7397
rtoes 12.0214
lfemur -5.05311 6.07215 -18.7846
ltibia 27.1318
lfoot -19.5859 4.39514
ltoes -3.24124
135
root 44.6548 16.146 -6.40915 9.15419 -82.0722 -11.8026
lowerback -1.25019 -0.941582 2.27801
upperback 3.23813 -1.36121 -0.0512979
thorax 3.9819 -0.617731 -1.39299
lowerneck -13.1774 -0.0682824 1.93822
upperneck 21.486 -0.984454 0.772451
head 8.89536 -0.325709 -0.19182
rclavicle -8.82107e-015 5.1684e-015
rhumerus -35.0234 -9.9914 -86.5914
rradius 28.2075
rwrist 1.44598
rhand -17.9768 -10.0126
rfingers 7.12502
rthumb 8.29269 -39.8298
lclavicle -8.82107e-015 5.1684e-015
lhumerus -33.867 2.02314 86.6218
lradius 27.0697
lwrist 18.3813
lhand -17.8198 13.3849
lfingers 7.12502
lthumb 8.44424 43.1961
rfemur -9.5954 3.09316 25.1585
rtibia 38.3756
rfoot -28.7284 -12.7464
rtoes 12.0403
lfemur -5.08532 6.01166 -18.8011
ltibia 27.1578
lfoot -19.6102 4.46668
ltoes -3.36178
136
root 44.6554 16.1465 -6.40888 9.05226 -82.0412 -11.6839
lowerback -1.258 -0.945753 2.28157
upperback 3.22938 -1.36664 -0.0549442
thorax 3.97685 -0.620298 -1.39903
lowerneck -13.1529 -0.0719554 1.93723
upperneck 21.446 -0.9858 0.767747
head 8.87702 -0.32705 -0.19318
rclavicle 4.00675e-014 -6.4605e-015
rhumerus -35.0448 -9.995 -86.5807
rradius 28.1987
rwrist 1.44646
rhand -17.9745 -10.0043
rfingers 7.12502
rthumb 8.29499 -39.8215
lclavicle 4.00675e-014 -6.4605e-015
lhumerus -33.858 2.0392 86.6118
lradius 27.0531
lwrist 18.3581
lhand -17.8265 13.3982
lfingers 7.12502
lthumb 8.43777 43.2096
rfemur -9.60594 3.08324 25.1444
rtibia 38.366
rfoot -28.7425 -12.7522
rtoes 12.0692
lfemur -5.12636 5.95868 -18.826
ltibia 27.1886
lfoot -19.6197 4.51996
ltoes -3.4716
137
root 44.6564 16.1473 -6.40874 8.89972 -82.0045 -11.5089
lowerback -1.26383 -0.950691 2.27592
upperback 3.21907 -1.37267 -0.0588049
thorax 3.96921 -0.623488 -1.4001
lowerneck -13.1233 -0.0759844 1.93387
upperneck 21.3898 -0.986255 0.763507
head 8.85222 -0.328106 -0.193798
rclavicle -5.51006e-015 3.47873e-015
rhumerus -35.0659 -9.99364 -86.571
rradius 28.1921
rwrist 1.43622
rhand -17.9833 -9.98985
rfingers 7.12502
rthumb 8.28643 -39.8073
lclavicle -5.51006e-015 3.47873e-015
lhumerus -33.8455 2.05363 86.6048
lradius 27.0361
lwrist 18.3377
lhand -17.8337 13.4037
lfingers 7.12502
lthumb 8.43085 43.2155
rfemur -9.62501 3.07857 25.1241
rtibia 38.3574
rfoot -28.7583 -12.7679
rtoes 12.0947
lfemur -5.18218 5.90995 -18.8582
ltibia 27.2279
lfoot -19.6169 4.55725
ltoes -3.56603
138
root 44.6579 16.1482 -6.40863 8.68791 -81.9596 -11.2721
lowerback -1.26543 -0.957969 2.26067
upperback 3.20947 -1.38144 -0.0623794
thorax 3.96001 -0.628374 -1.39554
lowerneck -13.0941 -0.0795103 1.93031
upperneck 21.3215 -0.984218 0.754783
head 8.82335 -0.32841 -0.195559
rclavicle -3.14018e-014 1.98785e-015
rhumerus -35.086 -9.98491 -86.5607
rradius 28.1928
rwrist 1.42506
rhand -17.9879 -9.98538
rfingers 7.12502
rthumb 8.28198 -39.803
lclavicle -3.14018e-014 1.98785e-015
lhumerus -33.8283 2.06857 86.602
lradius 27.0218
lwrist 18.3231
lhand -17.8414 13.3994
lfingers 7.12502
lthumb 8.42341 43.2114
rfemur -9.64831 3.07279 25.0956
rtibia 38.3493
rfoot -28.7758 -12.7871
rtoes 12.1174
lfemur -5.2514 5.87843 -18.8958
ltibia 27.279
lfoot -19.6027 4.56371
ltoes -3.64423
139
root 44.6599 16.149 -6.40845 8.47808 -81.9057 -11.038
lowerback -1.25952 -0.966964 2.24658
upperback 3.20107 -1.39248 -0.0644772
thorax 3.94772 -0.634428 -1.39007
lowerneck -13.0648 -0.0833971 1.92619
upperneck 21.2411 -0.981606 0.74486
head 8.79032 -0.328557 -0.197506
rclavicle -4.69629e-015 1.59028e-015
rhumerus -35.1033 -9.97077 -86.5514
rradius 28.1972
rwrist 1.40907
rhand -17.9913 -9.9844
rfingers 7.12502
rthumb 8.27877 -39.8022
lclavicle -4.69629e-015 1.59028e-015
lhumerus -33.8081 2.08202 86.6023
lradius 27.0125
lwrist 18.3134
lhand -17.8472 13.3923
lfingers 7.12502
lthumb 8.41775 43.2046
rfemur -9.67301 3.05515 25.0667
rtibia 38.3395
rfoot -28.7865 -12.8087
rtoes 12.1215
lfemur -5.33422 5.86677 -18.929
ltibia 27.3482
lfoot -19.5794 4.54052
ltoes -3.71207
140
root 44.6626 16.1498 -6.40817 8.27382 -81.8402 -10.8126
lowerback -1.24319 -0.978352 2.23671
upperback 3.19398 -1.40669 -0.0657817
thorax 3.9307 -0.642028 -1.38608
lowerneck -13.03 -0.0858698 1.92354
upperneck 21.1414 -0.976269 0.734854
head 8.74971 -0.327298 -0.199319
rclavicle 2.28354e-014 0
rhumerus -35.1184 -9.95505 -86.5424
rradius 28.2057
rwrist 1.39672
rhand -17.9905 -9.99598
rfingers 7.12502
rthumb 8.27946 -39.8137
lclavicle 2.28354e-014 0
lhumerus -33.7869 2.09183 86.6052
lradius 27.0109
lwrist 18.3114
lhand -17.847 13.3739
lfingers 7.12502
lthumb 8.418 43.1861
rfemur -9.69658 3.02186 25.0386
rtibia 38.3276
rfoot -28.7869 -12.8377
rtoes 12.0894
lfemur -5.42967 5.87137 -18.9573
ltibia 27.4375
lfoot -19.549 4.491
ltoes -3.76599
141
root 44.6658 16.1503 -6.40764 8.11278 -81.7656 -10.6366
lowerback -1.21375 -0.991098 2.23815
upperback 3.18794 -1.42289 -0.0654516
thorax 3.90707 -0.650411 -1.38655
lowerneck -12.99 -0.0845339 1.92532
upperneck 21.0253 -0.96553 0.723881
head 8.70267 -0.323238 -0.201507
rclavicle -5.69021e-015 -4.27387e-015
rhumerus -35.1345 -9.93642 -86.5344
rradius 28.2206
rwrist 1.38466
rhand -17.9811 -10.0266
rfingers 7.12502
rthumb 8.28855 -39.844
lclavicle -5.69021e-015 -4.27387e-015
lhumerus -33.7678 2.09539 86.6118
lradius 27.0177
lwrist 18.3175
lhand -17.8484 13.3627
lfingers 7.12502
lthumb 8.41659 43.175
rfemur -9.71512 2.97192 25.0161
rtibia 38.3123
rfoot -28.7768 -12.8687
rtoes 12.0399
lfemur -5.53432 5.88447 -18.9774
ltibia 27.5491
lfoot -19.5149 4.43119
ltoes -3.8187
142
root 44.6696 16.1508 -6.40694 7.97242 -81.6831 -10.4896
lowerback -1.16749 -1.00347 2.24937
upperback 3.18153 -1.43847 -0.0663938
thorax 3.87331 -0.658325 -1.3934
lowerneck -12.9373 -0.0806552 1.9352
upperneck 20.8882 -0.951946 0.712917
head 8.6462 -0.317276 -0.204619
rclavicle -2.43014e-014 3.37934e-015
rhumerus -35.1551 -9.92595 -86.5263
rradius 28.2378
rwrist 1.37553
rhand -17.9687 -10.0641
rfingers 7.12502
rthumb 8.30052 -39.881
lclavicle -2.43014e-014 3.37934e-015
lhumerus -33.7516 2.08777 86.6201
lradius 27.0301
lwrist 18.3295
lhand -17.8466 13.3463
lfingers 7.12502
lthumb 8.4184 43.1585
rfemur -9.72438 2.91717 24.9978
rtibia 38.2952
rfoot -28.772 -12.8907
rtoes 12.0179
lfemur -5.64327 5.89362 -18.9942
ltibia 27.6793
lfoot -19.4791 4.37662
ltoes -3.876
